<svg width="40" height="40" viewBox="0 0 40 40" fill="none" xmlns="http://www.w3.org/2000/svg">
<path opacity="0.987" fill-rule="evenodd" clip-rule="evenodd" d="M18.0225 2.65236C19.835 2.44986 20.9075 2.44986 22.855 2.65236C26.3023 3.1626 29.498 4.75608 31.98 7.20236C30.3028 8.7877 28.6476 10.3962 27.015 12.0274C23.8883 9.37736 20.3983 8.7657 16.545 10.1924C13.7183 11.4924 11.75 13.599 10.64 16.5124C8.8261 15.1619 7.03583 13.7801 5.27 12.3674C5.14728 12.3028 5.00712 12.2791 4.87 12.2999C7.67499 6.89153 12.0583 3.67486 18.02 2.64986" fill="#F44336"/>
<path opacity="0.997" fill-rule="evenodd" clip-rule="evenodd" d="M4.86502 12.3C5.00669 12.2783 5.14085 12.3008 5.26752 12.3675C7.03335 13.7802 8.82362 15.162 10.6375 16.5125C10.3521 17.6476 10.1722 18.8067 10.1 19.975C10.1617 21.105 10.3409 22.2141 10.6375 23.3025L5.00002 27.79C2.54502 22.66 2.50002 17.4966 4.86502 12.3Z" fill="#FFC107"/>
<path opacity="0.999" fill-rule="evenodd" clip-rule="evenodd" d="M31.7126 33.2248C29.9572 31.6768 28.1195 30.2247 26.2076 28.8748C28.1242 27.5215 29.2876 25.6648 29.6976 23.3048H20.3051V16.7823C25.7217 16.7373 31.1359 16.7832 36.5476 16.9198C37.5742 22.4948 36.3884 27.5215 32.9901 31.9998C32.586 32.4294 32.1579 32.8383 31.7126 33.2248Z" fill="#448AFF"/>
<path opacity="0.993" fill-rule="evenodd" clip-rule="evenodd" d="M10.6375 23.3047C12.6875 28.3997 16.4458 30.778 21.9125 30.4397C23.4471 30.262 24.9184 29.7259 26.2075 28.8747C28.1208 30.228 29.9558 31.678 31.7125 33.2247C28.9291 35.7258 25.3803 37.2099 21.645 37.4347C20.7964 37.5025 19.9436 37.5025 19.095 37.4347C12.7317 36.6847 8.03333 33.4697 5 27.7897L10.6375 23.3047Z" fill="#43A047"/>
</svg>
