<svg width="1187" height="884" viewBox="0 0 1187 884" fill="none" xmlns="http://www.w3.org/2000/svg">
<path d="M1186.39 776.846H0V777.439H1186.39V776.846Z" fill="#EBEBEB"/>
<path d="M1067.51 815.023H988.924V815.617H1067.51V815.023Z" fill="#EBEBEB"/>
<path d="M785.91 821.478H765.29V822.071H785.91V821.478Z" fill="#EBEBEB"/>
<path d="M986.551 793.005H941.018V793.598H986.551V793.005Z" fill="#EBEBEB"/>
<path d="M226.956 796.991H124.476V797.584H226.956V796.991Z" fill="#EBEBEB"/>
<path d="M263.117 796.991H248.097V797.584H263.117V796.991Z" fill="#EBEBEB"/>
<path d="M534.23 807.003H311.948V807.597H534.23V807.003Z" fill="#EBEBEB"/>
<path d="M562.347 671.02H104.188C100.599 671.014 97.1592 669.584 94.6235 667.043C92.0878 664.503 90.6636 661.061 90.6636 657.471V13.4299C90.6949 9.8613 92.1328 6.44914 94.6652 3.93457C97.1975 1.42001 100.62 0.00611318 104.188 0H562.347C565.94 0 569.387 1.42743 571.927 3.96827C574.468 6.50912 575.896 9.95523 575.896 13.5485V657.471C575.896 661.065 574.468 664.511 571.927 667.052C569.387 669.593 565.94 671.02 562.347 671.02ZM104.188 0.474556C100.757 0.480842 97.4674 1.84854 95.043 4.27746C92.6185 6.70638 91.2568 9.99803 91.2568 13.4299V657.471C91.2568 660.903 92.6185 664.195 95.043 666.624C97.4674 669.053 100.757 670.421 104.188 670.427H562.347C565.781 670.421 569.073 669.054 571.501 666.625C573.929 664.197 575.296 660.906 575.302 657.471V13.4299C575.296 9.99585 573.929 6.70425 571.501 4.27601C569.073 1.84777 565.781 0.480829 562.347 0.474556H104.188Z" fill="#EBEBEB"/>
<path d="M1075.6 671.02H617.419C613.828 671.014 610.385 669.584 607.846 667.045C605.306 664.505 603.877 661.063 603.871 657.471V13.4299C603.908 9.85914 605.351 6.44701 607.887 3.93309C610.424 1.41918 613.848 0.00604651 617.419 0H1075.6C1079.17 0.0123491 1082.58 1.429 1085.11 3.9429C1087.64 6.4568 1089.07 9.8654 1089.1 13.4299V657.471C1089.1 661.057 1087.68 664.496 1085.15 667.035C1082.62 669.575 1079.19 671.007 1075.6 671.02ZM617.419 0.474556C613.985 0.480829 610.693 1.84777 608.265 4.27601C605.837 6.70425 604.47 9.99585 604.464 13.4299V657.471C604.47 660.906 605.837 664.197 608.265 666.625C610.693 669.054 613.985 670.421 617.419 670.427H1075.6C1079.04 670.421 1082.33 669.054 1084.76 666.625C1087.18 664.197 1088.55 660.906 1088.56 657.471V13.4299C1088.55 9.99585 1087.18 6.70425 1084.76 4.27601C1082.33 1.84777 1079.04 0.480829 1075.6 0.474556H617.419Z" fill="#EBEBEB"/>
<path d="M792.72 771.151C790.993 771.157 789.34 771.848 788.121 773.071C786.902 774.294 786.218 775.95 786.218 777.676H851.612C851.612 775.946 850.924 774.286 849.701 773.062C848.477 771.839 846.817 771.151 845.087 771.151H826.769V659.631H841.006V510.146H826.769V465.063H397.772V510.146H387.948V659.631H397.772V771.151H379.454C377.723 771.151 376.064 771.839 374.84 773.062C373.616 774.286 372.929 775.946 372.929 777.676H438.322C438.322 775.954 437.641 774.301 436.428 773.079C435.214 771.857 433.567 771.164 431.845 771.151H413.503V659.631H811.061V771.151H792.72ZM413.479 510.146V480.249H811.061V510.146H413.479Z" fill="#E0E0E0"/>
<path d="M1014.38 264.92H908.25V409.564H955.658V777.676H966.952V409.564H1014.38V264.92Z" fill="#F0F0F0"/>
<path d="M431.014 94.6738V215.282H197.059V94.6738H211.485V58.75H219.149V94.6738H408.924V58.75H416.588V94.6738H431.014Z" fill="#F0F0F0"/>
<path d="M783.442 94.6738V215.282H549.487V94.6738H563.913V58.75H571.577V94.6738H761.328V58.75H769.016V94.6738H783.442Z" fill="#F0F0F0"/>
<path d="M588.448 771.151C586.717 771.151 585.057 771.839 583.834 773.062C582.61 774.286 581.922 775.946 581.922 777.676H647.292C647.292 775.95 646.608 774.294 645.39 773.071C644.171 771.848 642.517 771.157 640.791 771.151H622.449V659.631H636.686V510.146H622.449V465.063H193.452V510.146H183.629V659.631H193.452V771.151H175.134C174.279 771.151 173.431 771.32 172.641 771.648C171.851 771.977 171.133 772.457 170.529 773.064C169.925 773.67 169.446 774.389 169.121 775.181C168.796 775.972 168.63 776.82 168.633 777.676H234.027C234.027 775.946 233.339 774.286 232.115 773.062C230.892 771.839 229.232 771.151 227.501 771.151H209.184V659.631H606.742V771.151H588.448ZM209.184 510.146V480.249H606.742V510.146H209.184Z" fill="#EBEBEB"/>
<path d="M593.193 884C847.276 884 1053.25 871.974 1053.25 857.14C1053.25 842.306 847.276 830.281 593.193 830.281C339.111 830.281 133.136 842.306 133.136 857.14C133.136 871.974 339.111 884 593.193 884Z" fill="#F5F5F5"/>
<path d="M220.777 716.351C220.777 716.351 224.123 691.746 239.878 689.041C255.633 686.336 250.864 674.448 254.969 669.845C259.074 665.242 269.775 678.838 260.616 692.007C251.457 705.176 258.931 701.023 254.969 713.362C251.006 725.7 219.33 736.757 220.777 716.351Z" fill="#2C3032"/>
<path d="M221.418 733.317C221.286 733.352 221.146 733.352 221.014 733.317C220.897 733.263 220.791 733.187 220.703 733.092C220.615 732.997 220.547 732.886 220.503 732.764C220.459 732.643 220.439 732.513 220.446 732.384C220.452 732.255 220.484 732.129 220.54 732.012C220.658 731.775 232.404 706.694 226.187 666.595C224.206 655.056 221.025 643.755 216.696 632.877C209.222 612.519 202.768 594.913 216.886 564.186C221.252 554.695 225.712 545.82 230.007 537.255C245.928 505.649 258.48 480.664 249.345 455.845C249.295 455.724 249.271 455.594 249.272 455.463C249.274 455.332 249.303 455.202 249.356 455.082C249.409 454.962 249.485 454.855 249.581 454.765C249.677 454.676 249.79 454.606 249.913 454.562C250.036 454.517 250.167 454.497 250.298 454.504C250.429 454.511 250.557 454.545 250.674 454.603C250.792 454.661 250.897 454.742 250.982 454.841C251.068 454.94 251.132 455.056 251.172 455.181C260.663 480.783 247.898 506.1 231.763 538.228C227.468 546.77 223.007 555.596 218.641 565.087C204.879 595.079 210.906 611.499 218.523 632.284C222.909 643.223 226.153 654.586 228.204 666.191C234.515 706.955 222.509 732.51 222.39 732.771C222.304 732.951 222.164 733.1 221.99 733.197C221.816 733.295 221.616 733.337 221.418 733.317Z" fill="#2C3032"/>
<path d="M230.577 727.433C230.577 727.433 240.756 712.081 226.068 704.203C211.381 696.326 208.439 702.661 199.351 697.085C190.263 691.509 183.382 677.676 181.84 686.455C180.297 695.234 190.785 700.264 187.084 704.274C183.382 708.284 211.713 734.337 230.577 727.433Z" fill="#2C3032"/>
<path d="M254.518 468.231C254.518 468.231 264.436 438.097 241.895 437.385C219.353 436.673 244.196 465.004 254.518 468.231Z" fill="#2C3032"/>
<path d="M234.942 491.389C234.942 491.389 228.228 463.984 212.211 469.773C196.195 475.563 218.974 491.888 234.942 491.389Z" fill="#2C3032"/>
<path d="M262.087 493.761C262.087 493.761 259.714 471.908 276.656 471.457C293.597 471.006 286.076 490.226 262.087 493.761Z" fill="#2C3032"/>
<path d="M250.793 538.37C250.793 538.37 273.571 518.035 281.781 533.174C289.991 548.312 264.578 551.444 250.793 538.37Z" fill="#2C3032"/>
<path d="M210.455 534.763C210.455 534.763 206.184 501.022 187.772 511.605C169.359 522.187 194.439 538.061 210.455 534.763Z" fill="#2C3032"/>
<path d="M194.273 583.144C194.273 583.144 207.845 549.047 182.599 552.891C157.353 556.735 176.454 574.792 194.273 583.144Z" fill="#2C3032"/>
<path d="M232.949 595.222C232.949 595.222 254.304 570.118 270.558 578.067C286.811 586.016 273.619 611.025 232.949 595.222Z" fill="#2C3032"/>
<path d="M213.659 650.886C213.659 650.886 195.483 610.549 179.325 624.145C163.166 637.741 189.646 658.076 213.659 650.886Z" fill="#2C3032"/>
<path d="M240.068 648.538C240.068 648.538 235.322 617.241 253.26 619.756C271.198 622.271 266.524 641.419 240.068 648.538Z" fill="#2C3032"/>
<g opacity="0.2">
<path d="M254.518 468.231C254.518 468.231 264.436 438.097 241.895 437.385C219.353 436.673 244.196 465.004 254.518 468.231Z" fill="#4599FF"/>
<path d="M234.942 491.389C234.942 491.389 228.228 463.984 212.211 469.773C196.195 475.563 218.974 491.888 234.942 491.389Z" fill="#4599FF"/>
<path d="M262.087 493.761C262.087 493.761 259.714 471.908 276.656 471.457C293.597 471.006 286.076 490.226 262.087 493.761Z" fill="#4599FF"/>
<path d="M250.793 538.37C250.793 538.37 273.571 518.035 281.781 533.174C289.991 548.312 264.578 551.444 250.793 538.37Z" fill="#4599FF"/>
<path d="M210.455 534.763C210.455 534.763 206.184 501.022 187.772 511.605C169.359 522.187 194.439 538.061 210.455 534.763Z" fill="#4599FF"/>
<path d="M194.273 583.144C194.273 583.144 207.845 549.047 182.599 552.891C157.353 556.735 176.454 574.792 194.273 583.144Z" fill="#4599FF"/>
<path d="M232.949 595.222C232.949 595.222 254.304 570.118 270.558 578.067C286.811 586.016 273.619 611.025 232.949 595.222Z" fill="#4599FF"/>
<path d="M213.659 650.886C213.659 650.886 195.483 610.549 179.325 624.145C163.166 637.741 189.646 658.076 213.659 650.886Z" fill="#4599FF"/>
<path d="M240.068 648.538C240.068 648.538 235.322 617.241 253.26 619.756C271.198 622.271 266.524 641.419 240.068 648.538Z" fill="#4599FF"/>
</g>
<path d="M244.813 509.422H244.529C244.4 509.385 244.281 509.322 244.179 509.236C244.077 509.15 243.994 509.044 243.935 508.924C243.935 508.757 235.204 492.195 228.678 488.28C228.545 488.226 228.426 488.143 228.328 488.038C228.23 487.932 228.156 487.807 228.111 487.67C228.066 487.534 228.051 487.389 228.068 487.246C228.084 487.103 228.131 486.966 228.205 486.843C228.28 486.72 228.38 486.614 228.499 486.534C228.618 486.453 228.753 486.399 228.895 486.376C229.037 486.352 229.182 486.36 229.321 486.398C229.46 486.436 229.589 486.503 229.699 486.596C235.844 490.297 243.247 503.514 245.193 507.12C257.674 499.765 266.88 486.24 266.975 486.097C267.047 485.992 267.138 485.901 267.245 485.83C267.352 485.76 267.471 485.711 267.597 485.687C267.723 485.663 267.852 485.663 267.977 485.689C268.102 485.715 268.221 485.765 268.327 485.836C268.433 485.908 268.524 486 268.595 486.107C268.665 486.214 268.714 486.333 268.738 486.459C268.762 486.584 268.761 486.713 268.736 486.839C268.71 486.964 268.66 487.083 268.588 487.189C268.185 487.782 258.599 501.876 245.288 509.327C245.142 509.404 244.977 509.437 244.813 509.422Z" fill="#2C3032"/>
<path d="M224.099 551.278H223.909C223.772 551.256 223.642 551.204 223.527 551.126C223.412 551.048 223.316 550.946 223.245 550.827C223.245 550.637 212.377 532.557 198.544 524.418C198.321 524.289 198.158 524.077 198.091 523.827C198.024 523.578 198.059 523.313 198.188 523.089C198.322 522.864 198.538 522.701 198.792 522.634C199.045 522.568 199.314 522.603 199.541 522.734C212.14 530.16 221.94 545.014 224.384 548.834C243.817 534.597 268.066 535.333 268.304 535.309C268.433 535.312 268.561 535.341 268.68 535.394C268.798 535.448 268.905 535.524 268.993 535.619C269.082 535.714 269.15 535.826 269.195 535.948C269.239 536.07 269.259 536.2 269.253 536.329C269.25 536.457 269.221 536.583 269.17 536.7C269.118 536.817 269.044 536.922 268.951 537.01C268.859 537.099 268.75 537.168 268.63 537.214C268.511 537.26 268.384 537.282 268.256 537.279C268.019 537.279 243.698 536.685 224.692 551.041C224.524 551.18 224.317 551.263 224.099 551.278Z" fill="#2C3032"/>
<path d="M210.93 606.611C210.707 606.609 210.49 606.534 210.313 606.397C196.765 595.506 186.348 568.433 185.921 567.27C185.823 567.012 185.832 566.726 185.946 566.474C186.059 566.223 186.268 566.027 186.526 565.929C186.784 565.832 187.07 565.841 187.322 565.954C187.573 566.068 187.769 566.276 187.867 566.534C187.867 566.795 198.236 593.56 211.144 604.499C215.415 602.126 240.447 588.435 259.619 588.055C259.873 588.055 260.117 588.155 260.299 588.332C260.481 588.509 260.586 588.751 260.592 589.005C260.599 589.133 260.579 589.262 260.534 589.382C260.489 589.503 260.42 589.613 260.332 589.707C260.243 589.8 260.136 589.874 260.018 589.925C259.899 589.975 259.772 590.001 259.643 590.001C239.569 590.405 211.808 606.35 211.523 606.611C211.331 606.676 211.122 606.676 210.93 606.611Z" fill="#2C3032"/>
<path d="M226.994 663.819C226.84 663.82 226.689 663.783 226.552 663.713C226.416 663.643 226.299 663.541 226.211 663.415C218.423 654.006 207.953 647.194 196.195 643.887C195.946 643.815 195.737 643.647 195.612 643.42C195.488 643.193 195.458 642.926 195.531 642.677C195.603 642.429 195.771 642.219 195.998 642.094C196.225 641.97 196.492 641.94 196.741 642.013C208.607 645.323 219.22 652.087 227.231 661.446C237.125 654.921 250.176 629.627 250.294 629.366C250.433 629.169 250.637 629.03 250.871 628.972C251.104 628.915 251.35 628.944 251.564 629.053C251.778 629.163 251.945 629.346 252.034 629.57C252.124 629.793 252.129 630.041 252.05 630.267C251.481 631.383 237.956 657.602 227.492 663.486C227.364 663.645 227.19 663.762 226.994 663.819Z" fill="#2C3032"/>
<path d="M228.963 723.754C228.963 723.754 237.671 709.874 247.542 707.904C257.413 705.935 261.636 694.569 265.266 701.403C268.897 708.236 258.884 730.849 228.963 723.754Z" fill="#2C3032"/>
<path d="M274.236 778.281H178.969L172.586 719.507H280.595L274.236 778.281Z" fill="#4599FF"/>
<path d="M282.825 730.636H170.356L168.932 718.203H284.272L282.825 730.636Z" fill="#4599FF"/>
<path opacity="0.3" d="M282.825 730.636H170.356L168.932 718.203H284.272L282.825 730.636Z" fill="#4599FF"/>
<path d="M890.046 23.1414H783.935C779.146 23.1414 774.404 24.0847 769.979 25.9174C765.554 27.7502 761.534 30.4365 758.148 33.823C754.761 37.2095 752.075 41.2299 750.242 45.6546C748.409 50.0793 747.466 54.8216 747.466 59.6109V162.732C747.466 167.521 748.409 172.263 750.242 176.688C752.075 181.113 754.761 185.133 758.148 188.519C761.534 191.906 765.554 194.592 769.979 196.425C774.404 198.258 779.146 199.201 783.935 199.201H791.244L791.908 226.274L815.778 199.201H890.046C894.835 199.201 899.577 198.258 904.002 196.425C908.427 194.592 912.447 191.906 915.834 188.519C919.22 185.133 921.906 181.113 923.739 176.688C925.572 172.263 926.515 167.521 926.515 162.732V59.6109C926.515 49.9386 922.673 40.6624 915.834 33.823C908.994 26.9837 899.718 23.1414 890.046 23.1414Z" fill="#4599FF"/>
<path opacity="0.7" d="M875.691 160.596H798.291L804.033 91.0971L801.162 77.2876H872.82L869.949 91.0971L875.691 160.596Z" fill="white"/>
<path d="M858.227 81.8673C857.61 67.6307 848.332 56.4075 836.991 56.4075C825.649 56.4075 816.347 67.7019 815.754 81.8673C815.519 82.024 815.325 82.2353 815.188 82.4831C815.052 82.731 814.977 83.0081 814.971 83.291C814.971 83.7692 815.161 84.2279 815.499 84.5661C815.838 84.9043 816.296 85.0943 816.775 85.0943C817.253 85.0943 817.712 84.9043 818.05 84.5661C818.388 84.2279 818.578 83.7692 818.578 83.291C818.572 83.0284 818.507 82.7706 818.388 82.5366C818.268 82.3025 818.098 82.0981 817.89 81.9385C818.459 68.912 826.788 58.543 836.991 58.543C847.194 58.543 855.522 68.912 855.973 81.9385C855.772 82.1037 855.609 82.3098 855.495 82.5431C855.38 82.7763 855.317 83.0313 855.308 83.291C855.308 83.7692 855.498 84.2279 855.837 84.5661C856.175 84.9043 856.634 85.0943 857.112 85.0943C857.59 85.0943 858.049 84.9043 858.387 84.5661C858.725 84.2279 858.915 83.7692 858.915 83.291C858.92 83.0164 858.86 82.7446 858.74 82.4973C858.621 82.2501 858.445 82.0343 858.227 81.8673Z" fill="white"/>
<path d="M901.791 118.954C901.791 122.811 900.647 126.582 898.504 129.79C896.361 132.997 893.315 135.497 889.751 136.973C886.187 138.449 882.265 138.836 878.482 138.083C874.698 137.33 871.223 135.473 868.495 132.745C865.768 130.017 863.91 126.542 863.157 122.759C862.405 118.975 862.791 115.054 864.267 111.49C865.744 107.926 868.243 104.88 871.451 102.737C874.658 100.593 878.429 99.4495 882.287 99.4495C887.46 99.4495 892.421 101.504 896.078 105.162C899.736 108.82 901.791 113.781 901.791 118.954Z" fill="#262D31"/>
<path d="M880.223 126.665C879.902 126.665 879.595 126.537 879.368 126.309L870.352 117.293C870.134 117.071 870.013 116.773 870.013 116.462C870.013 116.152 870.134 115.854 870.352 115.632C870.462 115.521 870.593 115.432 870.738 115.372C870.883 115.312 871.038 115.281 871.194 115.281C871.351 115.281 871.506 115.312 871.65 115.372C871.795 115.432 871.926 115.521 872.037 115.632L880.223 123.794L892.537 111.574C892.759 111.357 893.057 111.235 893.368 111.235C893.678 111.235 893.976 111.357 894.198 111.574C894.309 111.685 894.398 111.816 894.458 111.961C894.518 112.105 894.549 112.26 894.549 112.417C894.549 112.573 894.518 112.729 894.458 112.873C894.398 113.018 894.309 113.149 894.198 113.259L881.053 126.309C880.834 126.533 880.536 126.661 880.223 126.665Z" fill="white"/>
<path d="M671.922 285.254L662.122 323.005L679.657 325.093L683.857 290.64L671.922 285.254Z" fill="#FFBAAF"/>
<path d="M537.457 833.982L540.257 836.355L543.982 833.578L549.677 845.632L573.167 865.587C573.167 865.587 580.096 865.018 571.459 852.513C571.032 851.906 570.674 851.253 570.391 850.567C566.808 842.69 566.333 826.033 566.333 826.033L553.449 815.071C552.55 815.334 551.67 815.659 550.816 816.044C546.995 817.681 539.497 821.572 537.457 833.982Z" fill="#4599FF"/>
<path opacity="0.2" d="M537.457 833.982L540.257 836.355L543.982 833.578L549.677 845.632L573.167 865.587C573.167 865.587 580.096 865.018 571.459 852.513C571.032 851.906 570.674 851.253 570.391 850.567C566.808 842.69 566.333 826.033 566.333 826.033L553.449 815.071C552.55 815.334 551.67 815.659 550.816 816.044C546.995 817.681 539.497 821.572 537.457 833.982Z" fill="#0A0A0A"/>
<path d="M550.815 816.044C554.137 815.593 554.802 830.517 558.076 838.181C560.995 844.991 565.74 850.947 570.438 850.544C566.855 842.666 567.852 822.474 567.852 822.474L557.483 813.671C557.483 813.671 552.453 815.332 550.815 816.044Z" fill="#FFBAAF"/>
<path opacity="0.2" d="M550.815 816.044C554.137 815.593 554.802 830.517 558.076 838.181C560.995 844.991 565.74 850.947 570.438 850.544C566.855 842.666 567.852 822.474 567.852 822.474L557.483 813.671C557.483 813.671 552.453 815.332 550.815 816.044Z" fill="#0A0A0A"/>
<path d="M536.769 870.119H540.446L541.467 865.587L553.639 871.068H584.485C584.485 871.068 589.373 866.133 574.709 862.218C573.985 862.028 573.285 861.758 572.621 861.411C564.791 857.757 553.639 845.347 553.639 845.347H536.721C536.207 846.109 535.74 846.901 535.321 847.72C533.471 851.516 530.291 859.323 536.769 870.119Z" fill="#4599FF"/>
<path d="M535.321 847.791C537.552 845.299 547.731 856.238 555.158 859.963C561.825 863.285 569.276 864.709 572.598 861.363C564.767 857.709 552.453 841.669 552.453 841.669H538.857C538.857 841.669 536.247 846.201 535.321 847.791Z" fill="#FFBAAF"/>
<path d="M680.108 294.224L705.71 288.244L692.992 271.042C692.992 271.042 669.502 276.001 671.922 285.278L680.108 294.224Z" fill="#FFBAAF"/>
<path d="M685.138 295.718C685.138 295.718 684.165 382.23 664.946 382.23C654.292 382.23 642.215 375.301 631.941 367.447C623.318 360.741 615.314 353.277 608.023 345.143V344.858L601.403 304.687C620.385 304.213 653.319 347.54 653.319 347.54L669.122 292.657L685.138 295.718Z" fill="#4599FF"/>
<path opacity="0.2" d="M631.941 367.447C623.318 360.741 615.314 353.277 608.023 345.143V344.858L614.192 331.072C624.503 340.511 630.847 353.511 631.941 367.447Z" fill="#0A0A0A"/>
<path d="M523.718 208.804C523.718 208.804 529.722 198.411 546.924 196.655C564.127 194.899 586.929 204.058 590.417 230.325C593.905 256.591 601.356 270.994 601.356 270.994C601.356 270.994 545.951 285.468 530.386 280.248C514.821 275.028 490.737 216.278 523.718 208.804Z" fill="#0A0A0A"/>
<path d="M638.608 668.86C630.849 684.331 623.043 700.988 615.545 717.621C605.698 739.593 596.444 761.588 588.566 781.282C582.943 795.329 575.611 813.054 571.767 823.779C563.443 823.12 555.553 819.791 549.273 814.288C552.168 794.997 559.88 744.884 574.448 700.798C582.089 677.592 591.651 654.695 603.42 636.069C548.395 494.201 559.049 440.03 559.049 440.03L617.419 435.546C617.419 435.546 627.931 488.791 636.757 543.364C641.361 571.98 645.489 600.975 647.387 622.923V623.137C648.736 638.896 645.698 654.721 638.608 668.86Z" fill="#0A0A0A"/>
<path opacity="0.2" d="M587.997 593.786C579.835 569.631 573.76 548.703 569.489 530.694C572.764 516.457 577.699 504.119 584.675 496.597C584.675 496.597 596.302 535.724 587.997 593.786Z" fill="#0A0A0A"/>
<path opacity="0.2" d="M588.566 781.283C582.943 795.33 575.611 813.054 571.767 823.779C563.443 823.12 555.553 819.792 549.273 814.288C552.168 794.997 559.88 744.885 574.448 700.798C579.455 724.36 585.197 754.233 588.566 781.283Z" fill="#0A0A0A"/>
<path d="M593.881 429.804C593.881 429.804 576.869 561.517 567.116 624.893C556.866 691.45 555.561 798.272 558.124 841.788C554.398 843.948 540.802 846.534 533.471 844.28C533.471 844.28 498.757 709.649 521.796 631.466C500.821 477.449 531.288 439.722 531.288 439.722L593.881 429.804Z" fill="#0A0A0A"/>
<path opacity="0.7" d="M588.21 346.875C571.101 331.451 552.13 318.227 531.738 307.511C533.589 307.297 535.511 307.108 537.409 306.942C550.356 305.572 563.385 305.136 576.394 305.637C579.621 305.826 582.943 306.087 586.194 306.348C594.261 324.856 588.21 346.875 588.21 346.875Z" fill="white"/>
<path d="M531.738 429.804L616.921 424.062C616.921 424.062 619.46 449.616 618.867 449.26C618.273 448.904 527.776 452.44 527.776 452.44L531.738 429.804Z" fill="#0A0A0A"/>
<path d="M532.521 431.204L616.731 426.553V434.549L531.738 439.057L532.521 431.204Z" fill="#0A0A0A"/>
<path d="M579.906 437.918C579.3 437.919 578.717 437.689 578.276 437.274C577.835 436.86 577.569 436.292 577.533 435.688L577.153 430.942C577.124 430.625 577.159 430.305 577.256 430.001C577.354 429.698 577.511 429.417 577.719 429.176C577.927 428.934 578.182 428.737 578.468 428.596C578.754 428.456 579.065 428.374 579.384 428.356L588.614 427.62C588.946 427.593 589.281 427.636 589.596 427.746C589.91 427.856 590.198 428.032 590.441 428.261C590.69 428.486 590.888 428.76 591.023 429.067C591.158 429.374 591.226 429.706 591.224 430.041V434.976C591.224 435.605 590.974 436.209 590.529 436.654C590.084 437.099 589.48 437.349 588.851 437.349L580.001 437.823L579.906 437.918ZM588.78 429.305L579.55 430.017C579.444 430.026 579.34 430.056 579.246 430.105C579.151 430.154 579.068 430.221 578.999 430.303C578.931 430.384 578.879 430.479 578.847 430.58C578.816 430.682 578.804 430.789 578.814 430.895L579.17 435.64C579.194 435.85 579.294 436.044 579.452 436.184C579.609 436.324 579.813 436.401 580.024 436.4L588.875 435.925C589.085 435.919 589.284 435.831 589.43 435.681C589.576 435.53 589.658 435.328 589.658 435.118V430.183C589.659 430.071 589.637 429.961 589.592 429.858C589.546 429.756 589.48 429.664 589.397 429.59C589.322 429.499 589.228 429.426 589.121 429.377C589.014 429.328 588.897 429.303 588.78 429.305Z" fill="white"/>
<path d="M531.738 429.804C529.959 409.825 522.817 373.213 510.502 334.75C506.492 322.246 513.278 308.128 513.278 308.128C513.278 308.128 530.054 307.701 531.738 307.511C533.423 307.321 535.511 307.108 537.409 306.942C550.356 305.572 563.385 305.136 576.394 305.637C579.621 305.826 582.943 306.087 586.194 306.348C587.238 306.348 599.03 306.562 600.05 306.681C600.05 306.681 616.375 325.331 617.372 340.445C618.57 352.078 619.014 363.777 618.7 375.467C618.7 389.182 616.707 426.553 616.707 426.553C614.097 441.003 584.651 427.787 584.651 427.787C542.155 448.833 531.738 429.804 531.738 429.804Z" fill="#4599FF"/>
<path opacity="0.8" d="M531.738 429.804C529.959 409.825 522.817 373.213 510.502 334.75C506.492 322.246 513.278 308.128 513.278 308.128C513.278 308.128 530.054 307.701 531.738 307.511C533.423 307.321 535.511 307.108 537.409 306.942C550.356 305.572 563.385 305.136 576.394 305.637C579.621 305.826 582.943 306.087 586.194 306.348C587.238 306.348 599.03 306.562 600.05 306.681C600.05 306.681 616.375 325.331 617.372 340.445C618.57 352.078 619.014 363.777 618.7 375.467C618.7 389.182 616.707 426.553 616.707 426.553C614.097 441.003 584.651 427.787 584.651 427.787C542.155 448.833 531.738 429.804 531.738 429.804Z" fill="#E0DCDC"/>
<path opacity="0.2" d="M579.384 343.459C579.384 343.721 579.306 343.978 579.16 344.197C579.014 344.415 578.806 344.586 578.563 344.686C578.321 344.787 578.053 344.813 577.796 344.762C577.538 344.711 577.301 344.584 577.115 344.398C576.93 344.212 576.803 343.976 576.752 343.718C576.7 343.46 576.727 343.193 576.827 342.95C576.928 342.707 577.098 342.5 577.317 342.354C577.535 342.208 577.792 342.13 578.055 342.13C578.407 342.13 578.745 342.27 578.995 342.519C579.244 342.768 579.384 343.106 579.384 343.459Z" fill="#0A0A0A"/>
<path opacity="0.2" d="M584.224 371.528C584.224 371.791 584.146 372.048 584 372.267C583.854 372.485 583.647 372.655 583.404 372.756C583.161 372.857 582.894 372.883 582.636 372.832C582.378 372.78 582.142 372.654 581.956 372.468C581.77 372.282 581.644 372.045 581.592 371.788C581.541 371.53 581.567 371.263 581.668 371.02C581.768 370.777 581.939 370.57 582.157 370.424C582.376 370.278 582.633 370.2 582.895 370.2C583.248 370.2 583.586 370.34 583.835 370.589C584.084 370.838 584.224 371.176 584.224 371.528Z" fill="#0A0A0A"/>
<path opacity="0.2" d="M584.224 399.622C584.958 399.622 585.553 399.027 585.553 398.293C585.553 397.559 584.958 396.965 584.224 396.965C583.49 396.965 582.895 397.559 582.895 398.293C582.895 399.027 583.49 399.622 584.224 399.622Z" fill="#0A0A0A"/>
<path opacity="0.2" d="M585.553 425.39C586.287 425.39 586.882 424.795 586.882 424.061C586.882 423.328 586.287 422.733 585.553 422.733C584.819 422.733 584.224 423.328 584.224 424.061C584.224 424.795 584.819 425.39 585.553 425.39Z" fill="#0A0A0A"/>
<path d="M538.619 488.269L509.197 482.954L526.329 419.672C526.329 419.672 522.01 403.964 517.265 385.955C514.892 377.176 512.519 367.874 510.407 359.593C508.066 351.366 506.212 343.007 504.855 334.561C504.309 324.476 513.302 308.152 513.302 308.152L526.376 306.016C526.376 306.016 553.9 326.09 555.158 367.044C556.415 407.998 538.619 488.269 538.619 488.269Z" fill="#4599FF"/>
<path d="M592.814 304.688C592.814 304.688 601.474 336.933 605.721 360.661C609.969 384.389 621.667 485.422 621.667 485.422L628.049 482.242L619.294 421.95C619.294 421.95 622.497 352.072 620.006 337.716C617.514 323.361 601.45 304.688 601.45 304.688H592.814Z" fill="#4599FF"/>
<path d="M581.448 311.141C585.553 326.114 576.702 339.377 576.702 339.377C550.436 331.073 539.569 306.87 539.569 306.87C547.422 298.234 542.463 275.384 538.643 262.95L549.155 270.828L564.815 282.526C564.52 285.749 564.777 288.999 565.574 292.136C566.761 297.118 568.872 301.793 571.221 302.789L581.448 311.141Z" fill="#FFBAAF"/>
<path opacity="0.2" d="M565.574 292.135C559.334 290.736 551.148 284.282 549.843 277.899C549.338 275.561 549.107 273.172 549.155 270.781L564.815 282.478C564.515 285.717 564.771 288.983 565.574 292.135Z" fill="#0A0A0A"/>
<path d="M527.088 238.131C531.572 258.252 533.043 266.865 544.955 276.095C562.845 290.118 586.454 281.576 588.044 260.838C589.468 242.188 581.875 212.41 560.757 206.431C556.262 204.984 551.461 204.77 546.854 205.809C542.247 206.849 538.004 209.105 534.566 212.343C531.127 215.58 528.62 219.68 527.305 224.215C525.989 228.751 525.915 233.556 527.088 238.131Z" fill="#FFBAAF"/>
<path d="M553.07 240.623C553.378 242.331 554.517 243.612 555.609 243.494C556.7 243.375 557.341 241.904 557.032 240.196C556.724 238.487 555.585 237.206 554.493 237.325C553.402 237.443 552.856 238.914 553.07 240.623Z" fill="#0A0A0A"/>
<path d="M574.211 237.657C574.519 239.365 575.658 240.646 576.75 240.551C577.841 240.456 578.482 238.938 578.197 237.229C577.912 235.521 576.75 234.24 575.658 234.358C574.567 234.477 574.021 235.948 574.211 237.657Z" fill="#0A0A0A"/>
<path d="M575.279 234.501L579.099 232.888C579.099 232.888 577.604 236.328 575.279 234.501Z" fill="#0A0A0A"/>
<path d="M568.469 242.023C570.66 245.766 573.323 249.211 576.394 252.273C575.629 252.985 574.713 253.515 573.715 253.824C572.716 254.132 571.661 254.21 570.628 254.053L568.469 242.023Z" fill="#F3908D"/>
<path d="M548.111 230.277C548.243 230.277 548.373 230.247 548.493 230.19C548.612 230.132 548.716 230.049 548.799 229.945C549.566 228.987 550.561 228.236 551.692 227.76C552.823 227.283 554.055 227.096 555.276 227.216C555.403 227.236 555.532 227.23 555.656 227.199C555.781 227.168 555.897 227.112 555.999 227.034C556.101 226.956 556.187 226.859 556.25 226.748C556.313 226.636 556.353 226.513 556.368 226.386C556.383 226.112 556.298 225.842 556.127 225.628C555.956 225.413 555.713 225.269 555.442 225.223C553.901 225.054 552.343 225.274 550.908 225.862C549.474 226.451 548.211 227.39 547.233 228.592C547.073 228.806 547.002 229.073 547.033 229.337C547.064 229.602 547.195 229.845 547.399 230.016C547.601 230.179 547.851 230.27 548.111 230.277Z" fill="#0A0A0A"/>
<path d="M581.045 225.413C581.298 225.446 581.553 225.377 581.756 225.223C581.851 225.13 581.926 225.02 581.978 224.897C582.029 224.775 582.056 224.644 582.056 224.511C582.056 224.379 582.029 224.248 581.978 224.125C581.926 224.003 581.851 223.892 581.756 223.8C580.764 222.512 579.488 221.471 578.026 220.759C576.565 220.047 574.959 219.683 573.333 219.695C573.205 219.703 573.079 219.738 572.965 219.797C572.851 219.857 572.751 219.94 572.67 220.04C572.59 220.14 572.531 220.257 572.498 220.381C572.465 220.505 572.459 220.635 572.479 220.762C572.52 221.031 572.659 221.274 572.87 221.445C573.08 221.616 573.347 221.703 573.618 221.688C574.906 221.71 576.172 222.023 577.322 222.602C578.472 223.181 579.477 224.012 580.262 225.033C580.356 225.15 580.475 225.245 580.611 225.311C580.746 225.376 580.894 225.411 581.045 225.413Z" fill="#0A0A0A"/>
<path d="M554.042 237.467L557.839 235.854C557.839 235.854 556.344 239.271 554.042 237.467Z" fill="#0A0A0A"/>
<path d="M537.409 249.782C537.409 249.782 547.304 235.379 539.782 214.048C539.782 214.048 562.157 203.18 579.123 219.742C579.123 219.742 563.344 192.1 530.41 205.34C497.476 218.58 522.319 250.209 526.4 252.795C530.481 255.381 537.409 249.782 537.409 249.782Z" fill="#0A0A0A"/>
<path d="M523.054 255.523C525.7 259.024 529.624 261.336 533.969 261.953C539.521 262.618 541.087 256.994 538.714 251.822C536.342 247.076 530.766 241.239 525.664 242.971C520.563 244.703 519.637 251.11 523.054 255.523Z" fill="#FFBAAF"/>
<path d="M571.838 258.821C570.754 261.411 569.858 264.075 569.157 266.794C568.659 266.794 568.16 266.794 567.686 266.652C560.995 265.987 558.195 263.448 556.961 260.862C556.427 259.588 556.199 258.206 556.297 256.828C556.326 256.021 556.47 255.222 556.724 254.456C560.069 256.947 566.215 258.062 569.56 258.513C570.913 258.774 571.838 258.821 571.838 258.821Z" fill="#0A0A0A"/>
<path d="M569.465 258.632L568.611 261.005C562.323 260.341 557.981 259.036 556.202 256.947C556.231 256.14 556.375 255.341 556.629 254.575C559.974 256.995 566.191 258.11 569.465 258.632Z" fill="white"/>
<path d="M567.638 266.652C560.947 265.987 558.147 263.449 556.914 260.862C559.447 261.169 561.905 261.925 564.174 263.093C565.673 263.888 566.884 265.133 567.638 266.652Z" fill="#F3908D"/>
<path opacity="0.2" d="M521.037 381.067C520.304 383.075 518.938 384.79 517.146 385.955C514.773 377.175 512.4 367.874 510.289 359.593C515.722 353.021 520.302 347.54 520.302 347.54C520.302 347.54 526.566 366.996 521.037 381.067Z" fill="#0A0A0A"/>
<path d="M513.278 308.128C501.652 309.528 466.013 398.056 468.196 412.032C470.379 426.008 546.995 419.672 546.995 419.672V398.317L502.245 389.301L517.739 358.929C520.481 350.107 521.622 340.866 521.108 331.642C520.122 323.354 517.458 315.353 513.278 308.128Z" fill="#4599FF"/>
<path d="M501.913 452.416C501.788 452.449 501.658 452.449 501.533 452.416C501.343 452.311 501.201 452.135 501.139 451.927C501.077 451.718 501.099 451.494 501.201 451.301C501.414 450.874 523.576 408.354 515.176 394.972C514.21 393.564 512.869 392.456 511.304 391.772C509.74 391.089 508.015 390.857 506.326 391.104C475.741 392.172 461.243 436.519 461.101 436.97C461.014 437.149 460.865 437.291 460.681 437.369C460.498 437.448 460.293 437.458 460.103 437.397C459.913 437.337 459.751 437.21 459.647 437.04C459.542 436.87 459.503 436.668 459.535 436.471C459.677 435.997 474.507 390.558 506.255 389.443C508.243 389.196 510.261 389.509 512.08 390.348C513.9 391.186 515.449 392.516 516.553 394.189C525.474 408.425 503.597 450.376 502.648 452.155C502.558 452.258 502.443 452.335 502.314 452.381C502.185 452.426 502.047 452.439 501.913 452.416Z" fill="#4599FF"/>
<g opacity="0.6">
<path d="M501.913 452.416C501.788 452.449 501.658 452.449 501.533 452.416C501.343 452.311 501.201 452.135 501.139 451.927C501.077 451.718 501.099 451.494 501.201 451.301C501.414 450.874 523.576 408.354 515.176 394.972C514.21 393.564 512.869 392.456 511.304 391.772C509.74 391.089 508.015 390.857 506.326 391.104C475.741 392.172 461.243 436.519 461.101 436.97C461.014 437.149 460.865 437.291 460.681 437.369C460.498 437.448 460.293 437.458 460.103 437.397C459.913 437.337 459.751 437.21 459.647 437.04C459.542 436.87 459.503 436.668 459.535 436.471C459.677 435.997 474.507 390.558 506.255 389.443C508.243 389.196 510.261 389.509 512.08 390.348C513.9 391.186 515.449 392.516 516.553 394.189C525.474 408.425 503.597 450.376 502.648 452.155C502.558 452.258 502.443 452.335 502.314 452.381C502.185 452.426 502.047 452.439 501.913 452.416Z" fill="white"/>
</g>
<path d="M447.719 426.98L399.694 527.348L407.097 557.53L491.33 586.312L531.264 465.704L520.23 454.481L519.186 447.908L447.719 426.98Z" fill="#0A0A0A"/>
<path opacity="0.2" d="M447.719 426.98L399.694 527.349L407.097 557.53L491.33 586.312L531.264 465.704L459.559 448.572L460.247 439.936L447.719 426.98Z" fill="white"/>
<path opacity="0.1" d="M459.559 448.549L460.247 439.936L447.742 426.98L519.163 447.908L520.23 454.481L531.264 465.704L459.559 448.549Z" fill="white"/>
<path opacity="0.2" d="M459.559 448.573L407.097 557.53L491.33 586.312L531.264 465.704L459.559 448.573Z" fill="#ADAAAA"/>
<path opacity="0.1" d="M460.247 439.936L412.056 529.128L399.694 527.348L407.097 557.53L413.408 530.86L460.247 439.936Z" fill="white"/>
<path d="M507.773 388.992C505.751 387.937 503.496 387.408 501.215 387.454C498.934 387.5 496.702 388.118 494.723 389.253C476.927 399.361 470.853 448.904 470.141 455.263C469.773 455.409 469.468 455.68 469.279 456.028C469.091 456.376 469.031 456.779 469.11 457.167C469.19 457.555 469.403 457.903 469.713 458.149C470.023 458.395 470.41 458.525 470.806 458.514C471.252 458.514 471.681 458.337 471.997 458.021C472.313 457.705 472.49 457.276 472.49 456.829C472.485 456.564 472.418 456.304 472.294 456.069C472.171 455.834 471.994 455.632 471.778 455.477C472.443 449.64 478.636 400.286 495.506 390.7C497.254 389.683 499.234 389.129 501.256 389.091C503.279 389.054 505.277 389.534 507.062 390.487C532.118 402.113 514.441 457.114 511.238 466.415C510.91 466.439 510.595 466.557 510.334 466.757C510.072 466.957 509.875 467.229 509.766 467.539C509.658 467.85 509.642 468.185 509.722 468.504C509.802 468.823 509.973 469.112 510.215 469.335C510.457 469.558 510.759 469.705 511.084 469.758C511.408 469.812 511.741 469.769 512.042 469.635C512.342 469.501 512.597 469.282 512.775 469.005C512.952 468.728 513.045 468.405 513.041 468.076C513.036 467.751 512.928 467.435 512.733 467.175C516.078 457.945 534.657 401.449 507.773 388.992Z" fill="#4599FF"/>
<path opacity="0.7" d="M507.773 388.992C505.751 387.937 503.496 387.408 501.215 387.454C498.934 387.5 496.702 388.118 494.723 389.253C476.927 399.361 470.853 448.904 470.141 455.263C469.773 455.409 469.468 455.68 469.279 456.028C469.091 456.376 469.031 456.779 469.11 457.167C469.19 457.555 469.403 457.903 469.713 458.149C470.023 458.395 470.41 458.525 470.806 458.514C471.252 458.514 471.681 458.337 471.997 458.021C472.313 457.705 472.49 457.276 472.49 456.829C472.485 456.564 472.418 456.304 472.294 456.069C472.171 455.834 471.994 455.632 471.778 455.477C472.443 449.64 478.636 400.286 495.506 390.7C497.254 389.683 499.234 389.129 501.256 389.091C503.279 389.054 505.277 389.534 507.062 390.487C532.118 402.113 514.441 457.114 511.238 466.415C510.91 466.439 510.595 466.557 510.334 466.757C510.072 466.957 509.875 467.229 509.766 467.539C509.658 467.85 509.642 468.185 509.722 468.504C509.802 468.823 509.973 469.112 510.215 469.335C510.457 469.558 510.759 469.705 511.084 469.758C511.408 469.812 511.741 469.769 512.042 469.635C512.342 469.501 512.597 469.282 512.775 469.005C512.952 468.728 513.045 468.405 513.041 468.076C513.036 467.751 512.928 467.435 512.733 467.175C516.078 457.945 534.657 401.449 507.773 388.992Z" fill="white"/>
<path d="M525.332 449.379H525.213C525.003 449.35 524.813 449.239 524.684 449.07C524.555 448.901 524.498 448.688 524.525 448.478C524.525 448.027 530.528 402.137 517.881 391.721C516.46 390.622 514.767 389.93 512.983 389.717C511.199 389.504 509.39 389.778 507.75 390.511C478.826 400.358 481.934 445.773 481.958 446.223C481.971 446.329 481.962 446.436 481.931 446.538C481.901 446.639 481.849 446.733 481.78 446.814C481.71 446.895 481.625 446.96 481.529 447.005C481.433 447.05 481.328 447.075 481.222 447.078C481.012 447.091 480.805 447.021 480.645 446.884C480.486 446.746 480.386 446.552 480.368 446.342C480.368 445.867 477.117 399.243 507.228 388.992C509.129 388.173 511.216 387.879 513.269 388.142C515.323 388.405 517.268 389.215 518.902 390.487C532.237 401.449 526.376 446.769 526.02 448.691C526 448.867 525.921 449.03 525.796 449.155C525.671 449.28 525.507 449.359 525.332 449.379Z" fill="#0A0A0A"/>
<path d="M466.321 440.694L434.858 565.407L450.684 592.148L539.64 595.328L557.483 453.626L543.673 446.057L540.779 440.077L466.321 440.694Z" fill="#4599FF"/>
<path opacity="0.5" d="M466.321 440.694L434.858 565.407L450.684 592.148L539.64 595.328L557.483 453.626L483.903 457.944L482.053 449.474L466.321 440.694Z" fill="white"/>
<path opacity="0.3" d="M483.88 457.945L482.053 449.474L466.321 440.695L540.755 440.054L543.673 446.057L557.483 453.626L483.88 457.945Z" fill="white"/>
<path opacity="0.2" d="M483.903 457.945L450.684 592.149L539.64 595.328L557.483 453.626L483.903 457.945Z" fill="#FEFEFE"/>
<path d="M496.93 462.548C496.745 462.551 496.564 462.488 496.421 462.371C496.278 462.254 496.181 462.089 496.147 461.907C495.72 459.724 486.063 408.472 500.584 393.215C502.181 391.53 504.176 390.273 506.386 389.56C508.596 388.847 510.95 388.7 513.231 389.134C544.457 393.571 540.352 458.87 540.162 461.646C540.156 461.751 540.129 461.854 540.082 461.948C540.036 462.043 539.971 462.127 539.891 462.195C539.811 462.264 539.718 462.316 539.618 462.348C539.518 462.38 539.412 462.391 539.308 462.382C539.201 462.379 539.097 462.354 539.001 462.309C538.905 462.264 538.819 462.199 538.75 462.118C538.681 462.037 538.629 461.943 538.598 461.842C538.568 461.74 538.559 461.633 538.572 461.527C538.572 460.863 542.772 394.947 512.994 390.724C510.969 390.32 508.875 390.437 506.908 391.064C504.941 391.691 503.165 392.806 501.747 394.307C487.771 408.994 497.618 461.077 497.713 461.599C497.748 461.809 497.702 462.025 497.582 462.201C497.463 462.378 497.28 462.502 497.072 462.548H496.93Z" fill="#0A0A0A"/>
<path opacity="0.1" d="M482.053 449.474L447.22 563.51L434.858 565.408L450.684 592.149L449.024 564.791L482.053 449.474Z" fill="white"/>
<path d="M498.686 462.097C498.751 462.307 498.775 462.529 498.754 462.748C498.733 462.967 498.669 463.18 498.565 463.375C498.462 463.569 498.32 463.741 498.149 463.88C497.979 464.019 497.782 464.123 497.571 464.185C497.251 464.284 496.91 464.286 496.59 464.191C496.27 464.096 495.985 463.907 495.772 463.65C495.559 463.392 495.428 463.077 495.394 462.745C495.361 462.412 495.427 462.077 495.585 461.783C495.742 461.488 495.984 461.247 496.278 461.09C496.573 460.932 496.908 460.866 497.241 460.9C497.573 460.934 497.888 461.066 498.145 461.279C498.403 461.492 498.591 461.777 498.686 462.097Z" fill="#0A0A0A"/>
<path d="M540.802 461.148C540.902 461.467 540.904 461.808 540.808 462.128C540.713 462.449 540.524 462.733 540.267 462.946C540.009 463.159 539.694 463.29 539.362 463.324C539.029 463.357 538.695 463.291 538.4 463.134C538.105 462.976 537.864 462.735 537.707 462.44C537.55 462.145 537.484 461.81 537.518 461.478C537.551 461.145 537.683 460.83 537.896 460.573C538.109 460.316 538.394 460.128 538.714 460.033C538.925 459.967 539.146 459.944 539.365 459.964C539.585 459.985 539.798 460.049 539.992 460.153C540.186 460.257 540.358 460.398 540.497 460.569C540.636 460.74 540.74 460.936 540.802 461.148Z" fill="#0A0A0A"/>
<path d="M665.515 335.296C665.323 335.298 665.137 335.228 664.993 335.101C664.848 334.975 664.756 334.799 664.732 334.608C664.732 334.134 657.827 286.085 685.921 271.303C687.588 270.226 689.52 269.63 691.505 269.579C693.489 269.529 695.448 270.027 697.168 271.018C711.405 279.963 710.361 327.964 710.29 329.934C710.283 330.144 710.196 330.343 710.045 330.489C709.894 330.635 709.693 330.717 709.483 330.717C709.376 330.717 709.27 330.695 709.172 330.653C709.074 330.611 708.985 330.549 708.912 330.471C708.838 330.393 708.782 330.301 708.745 330.201C708.709 330.1 708.693 329.993 708.7 329.886C708.7 329.412 709.886 280.841 696.314 272.394C694.837 271.546 693.152 271.127 691.45 271.186C689.748 271.245 688.096 271.778 686.68 272.726C659.583 286.963 666.251 333.896 666.322 334.418C666.339 334.523 666.334 334.63 666.308 334.733C666.282 334.836 666.236 334.932 666.171 335.017C666.107 335.101 666.026 335.171 665.934 335.223C665.841 335.276 665.739 335.308 665.634 335.32L665.515 335.296Z" fill="#0A0A0A"/>
<path d="M649.997 331.263L638.252 459.345L658.017 483.31L746.403 472.68L742.061 329.91L727.255 324.571L723.435 319.114L649.997 331.263Z" fill="#0A0A0A"/>
<path opacity="0.5" d="M649.997 331.263L638.252 459.345L658.017 483.31L746.403 472.68L742.061 329.91L670.024 345.594L666.892 337.503L649.997 331.263Z" fill="white"/>
<path opacity="0.3" d="M670.024 345.594L666.892 337.503L649.997 331.263L723.435 319.114L727.255 324.571L742.061 329.91L670.024 345.594Z" fill="white"/>
<path opacity="0.2" d="M670.024 345.594L658.017 483.31L746.403 472.68L742.061 329.91L670.024 345.594Z" fill="#ADAAAA"/>
<path d="M683.501 348.133C683.335 348.137 683.173 348.089 683.036 347.995C682.9 347.901 682.797 347.767 682.742 347.611C682.03 345.689 665.753 300.155 677.284 280.01C678.572 277.662 680.379 275.638 682.566 274.092C684.753 272.547 687.264 271.519 689.907 271.089C692.398 270.602 694.965 270.671 697.426 271.29C699.887 271.909 702.181 273.064 704.144 274.672C722.675 289.122 725.997 338.452 726.116 340.54C726.123 340.749 726.052 340.953 725.915 341.111C725.779 341.269 725.588 341.37 725.38 341.394C725.274 341.4 725.168 341.386 725.068 341.351C724.967 341.316 724.875 341.262 724.796 341.192C724.716 341.121 724.652 341.036 724.605 340.94C724.559 340.845 724.532 340.741 724.526 340.635C724.526 340.136 721.133 289.929 703.171 275.929C701.37 274.458 699.267 273.402 697.011 272.836C694.756 272.27 692.403 272.208 690.121 272.655C687.711 273.049 685.422 273.987 683.428 275.397C681.434 276.807 679.788 278.652 678.613 280.793C667.437 300.298 683.999 346.59 684.165 347.065C684.203 347.163 684.22 347.268 684.217 347.372C684.213 347.477 684.189 347.58 684.144 347.676C684.1 347.771 684.037 347.856 683.959 347.927C683.881 347.997 683.79 348.051 683.691 348.085L683.501 348.133Z" fill="#0A0A0A"/>
<path opacity="0.1" d="M666.892 337.503L650.163 455.573L638.252 459.345L658.017 483.31L652.133 456.545L666.892 337.503Z" fill="white"/>
<path d="M685.28 347.397C685.42 347.693 685.47 348.024 685.422 348.348C685.374 348.673 685.232 348.975 685.013 349.219C684.793 349.462 684.507 349.635 684.189 349.716C683.872 349.797 683.538 349.782 683.229 349.674C682.919 349.565 682.649 349.368 682.452 349.106C682.255 348.845 682.14 348.531 682.121 348.203C682.102 347.876 682.18 347.551 682.345 347.268C682.51 346.985 682.756 346.758 683.05 346.614C683.248 346.518 683.462 346.461 683.682 346.449C683.902 346.436 684.121 346.467 684.329 346.54C684.536 346.612 684.727 346.726 684.891 346.873C685.054 347.02 685.187 347.198 685.28 347.397Z" fill="#0A0A0A"/>
<path d="M726.757 339.923C726.889 340.221 726.931 340.551 726.879 340.873C726.827 341.195 726.683 341.495 726.464 341.737C726.245 341.978 725.961 342.151 725.645 342.234C725.33 342.317 724.998 342.307 724.688 342.205C724.378 342.103 724.105 341.913 723.901 341.658C723.697 341.404 723.572 341.096 723.54 340.772C723.507 340.447 723.57 340.12 723.72 339.831C723.87 339.541 724.1 339.301 724.384 339.14C724.588 339.024 724.815 338.952 725.05 338.929C725.284 338.905 725.52 338.932 725.744 339.005C725.967 339.079 726.173 339.199 726.348 339.357C726.522 339.515 726.661 339.708 726.757 339.923Z" fill="#0A0A0A"/>
<path d="M586.075 384.389L586.573 380.284L586.929 379.904C588.78 377.531 588.424 373.426 587.926 370.223C587.427 367.02 585.743 362.701 582.706 361.539C583.15 360.675 583.26 359.678 583.014 358.739C582.828 358.117 582.485 357.553 582.017 357.102C584.224 354.729 584.129 350.363 583.37 347.207C582.611 344.052 581.329 340.089 578.624 338.642C578.463 338.56 578.296 338.489 578.126 338.428L576.109 334.869L573.547 335.391L573.357 338.357C568.849 339.757 564.293 343.316 565.455 349.058C565.444 349.137 565.444 349.217 565.455 349.295C566.713 354.871 572.906 357.861 578.553 358.336C579.244 358.491 579.966 358.424 580.617 358.146C580.952 358.422 581.193 358.795 581.306 359.214C581.443 359.876 581.315 360.566 580.95 361.135C580.325 361.233 579.727 361.459 579.194 361.8C574.211 364.41 569.703 369.535 570.652 375.182C570.652 375.182 570.652 375.348 570.652 375.42C571.815 381.162 577.177 382.704 582.065 382.229L583.417 384.934L586.075 384.389ZM578.672 356.675C573.926 356.248 568.16 353.661 567.093 348.892C566.025 344.123 570.082 340.943 574.211 339.757C574.784 339.559 575.392 339.482 575.997 339.531C576.601 339.58 577.189 339.754 577.723 340.042C579.834 341.275 580.926 344.787 581.614 347.563L581.756 348.156C582.207 350.529 582.421 354.278 580.617 356.01C579.834 356.77 579.834 356.77 578.601 356.675H578.672ZM582.468 380.521C580.38 380.806 573.381 381.114 572.313 374.874C571.482 370.128 575.706 365.383 580.048 363.2C581.092 362.678 581.092 362.678 582.112 363.2C584.485 364.101 585.719 367.661 586.194 370.01C586.194 370.199 586.194 370.413 586.194 370.579C586.644 373.498 587 377.081 585.505 379.05C585.116 379.495 584.639 379.855 584.104 380.108C583.569 380.361 582.988 380.502 582.397 380.521H582.468Z" fill="#0A0A0A"/>
<path d="M582.516 381.352C577.77 381.969 572.431 380.569 571.435 375.017C570.438 369.465 574.923 364.933 579.55 362.512C580.902 361.801 580.95 361.753 582.35 362.299C585.197 363.414 586.621 367.709 587.095 370.343C587.831 375.444 587.902 380.664 582.516 381.352Z" fill="#4599FF"/>
<path d="M573.997 338.973C569.252 340.278 565.005 343.719 566.238 349.081C567.472 354.444 573.357 357.054 578.529 357.481C580.048 357.623 580.119 357.647 581.187 356.603C583.394 354.468 583.061 349.959 582.421 347.373C581.187 342.343 579.218 337.502 573.997 338.973Z" fill="#4599FF"/>
<path d="M583.892 382.42C580.523 368.895 576.323 353.946 575.16 352.665C573.23 351.873 571.227 351.269 569.181 350.862L569.513 349.296C571.754 349.732 573.942 350.409 576.038 351.312C577.818 352.333 582.682 371.006 585.529 382.04L583.892 382.42Z" fill="#0A0A0A"/>
<path opacity="0.4" d="M582.516 381.352C577.77 381.969 572.431 380.569 571.435 375.017C570.438 369.465 574.923 364.933 579.55 362.512C580.902 361.801 580.95 361.753 582.35 362.299C585.197 363.414 586.621 367.709 587.095 370.343C587.831 375.444 587.902 380.664 582.516 381.352Z" fill="white"/>
<path opacity="0.4" d="M573.997 338.973C569.252 340.278 565.005 343.719 566.238 349.081C567.472 354.444 573.357 357.054 578.529 357.481C580.048 357.623 580.119 357.647 581.187 356.603C583.394 354.468 583.061 349.959 582.421 347.373C581.187 342.343 579.218 337.502 573.997 338.973Z" fill="white"/>
<path d="M683.359 338.167C683.195 338.165 683.035 338.114 682.9 338.021C682.765 337.928 682.66 337.797 682.599 337.645C681.674 335.462 660.177 283.522 689.338 270.353C691.056 269.531 692.943 269.123 694.847 269.165C696.752 269.206 698.619 269.694 700.3 270.59C716.91 278.99 725.95 322.032 726.401 323.859C726.425 323.964 726.428 324.072 726.411 324.178C726.393 324.283 726.354 324.385 726.296 324.475C726.239 324.566 726.164 324.644 726.076 324.705C725.988 324.766 725.889 324.81 725.784 324.832C725.57 324.882 725.345 324.845 725.158 324.729C724.971 324.614 724.838 324.429 724.787 324.215C724.787 323.764 715.438 280.105 699.612 272.014C698.158 271.233 696.54 270.808 694.889 270.775C693.239 270.742 691.605 271.102 690.121 271.824C662.431 284.329 684.023 336.435 684.236 336.957C684.283 337.056 684.309 337.164 684.313 337.274C684.317 337.383 684.298 337.492 684.258 337.595C684.218 337.697 684.158 337.79 684.08 337.868C684.003 337.946 683.911 338.007 683.809 338.048C683.673 338.13 683.517 338.171 683.359 338.167Z" fill="#0A0A0A"/>
<g opacity="0.7">
<path d="M683.359 338.167C683.195 338.165 683.035 338.114 682.9 338.021C682.765 337.928 682.66 337.797 682.599 337.645C681.674 335.462 660.177 283.522 689.338 270.353C691.056 269.531 692.943 269.123 694.847 269.165C696.752 269.206 698.619 269.694 700.3 270.59C716.91 278.99 725.95 322.032 726.401 323.859C726.425 323.964 726.428 324.072 726.411 324.178C726.393 324.283 726.354 324.385 726.296 324.475C726.239 324.566 726.164 324.644 726.076 324.705C725.988 324.766 725.889 324.81 725.784 324.832C725.57 324.882 725.345 324.845 725.158 324.729C724.971 324.614 724.838 324.429 724.787 324.215C724.787 323.764 715.438 280.105 699.612 272.014C698.158 271.233 696.54 270.808 694.889 270.775C693.239 270.742 691.605 271.102 690.121 271.824C662.431 284.329 684.023 336.435 684.236 336.957C684.283 337.056 684.309 337.164 684.313 337.274C684.317 337.383 684.298 337.492 684.258 337.595C684.218 337.697 684.158 337.79 684.08 337.868C684.003 337.946 683.911 338.007 683.809 338.048C683.673 338.13 683.517 338.171 683.359 338.167Z" fill="white"/>
</g>
<path d="M667.556 337.289L690.168 446.27L714.347 465.798L798.794 437.634L757.484 317.5L741.895 315.246L737.078 310.643L667.556 337.289Z" fill="#4599FF"/>
<path opacity="0.2" d="M667.556 337.289L690.168 446.27L714.347 465.798L798.794 437.633L757.484 317.5L690.05 347.302L685.352 340.018L667.556 337.289Z" fill="white"/>
<path opacity="0.1" d="M690.026 347.302L685.352 340.018L667.556 337.289L737.054 310.643L741.895 315.246L757.46 317.5L690.026 347.302Z" fill="white"/>
<path opacity="0.2" d="M690.05 347.302L714.347 465.798L798.794 437.633L757.484 317.5L690.05 347.302Z" fill="#FFE4E4"/>
<path opacity="0.1" d="M685.352 340.018L701.083 440.172L690.168 446.27L714.347 465.798L703.219 440.742L685.352 340.018Z" fill="white"/>
<path d="M744.481 330.384C744.269 330.14 744 329.953 743.698 329.839C740.613 320.348 720.587 262.998 691.687 269.38C689.458 269.762 687.362 270.699 685.591 272.105C683.82 273.51 682.432 275.34 681.555 277.424C673.44 296.406 699.232 340.635 702.554 346.235C702.397 346.524 702.327 346.853 702.352 347.181C702.377 347.509 702.497 347.823 702.697 348.085C702.829 348.265 702.997 348.416 703.19 348.529C703.382 348.642 703.596 348.715 703.817 348.744C704.039 348.773 704.264 348.757 704.479 348.697C704.694 348.636 704.895 348.533 705.069 348.394C705.248 348.261 705.398 348.093 705.512 347.902C705.626 347.71 705.7 347.497 705.731 347.277C705.762 347.056 705.749 346.831 705.692 346.616C705.635 346.4 705.537 346.198 705.402 346.021C705.241 345.811 705.032 345.643 704.792 345.532C704.552 345.42 704.289 345.368 704.025 345.38C700.988 340.255 675.386 296.122 683.098 278.065C683.87 276.218 685.098 274.597 686.666 273.352C688.235 272.107 690.092 271.28 692.067 270.946C719.045 265.015 738.881 320.585 742.085 330.266C741.763 330.538 741.558 330.923 741.509 331.341C741.461 331.76 741.573 332.181 741.824 332.52C742.1 332.87 742.501 333.101 742.943 333.162C743.385 333.224 743.834 333.113 744.196 332.852C744.383 332.713 744.539 332.537 744.654 332.335C744.77 332.134 744.844 331.911 744.871 331.68C744.897 331.449 744.876 331.215 744.809 330.992C744.742 330.769 744.631 330.562 744.481 330.384Z" fill="#0A0A0A"/>
<path opacity="0.8" d="M744.481 330.384C744.269 330.14 744 329.953 743.698 329.839C740.613 320.348 720.587 262.998 691.687 269.38C689.458 269.762 687.362 270.699 685.591 272.105C683.82 273.51 682.432 275.34 681.555 277.424C673.44 296.406 699.232 340.635 702.554 346.235C702.397 346.524 702.327 346.853 702.352 347.181C702.377 347.509 702.497 347.823 702.697 348.085C702.829 348.265 702.997 348.416 703.19 348.529C703.382 348.642 703.596 348.715 703.817 348.744C704.039 348.773 704.264 348.757 704.479 348.697C704.694 348.636 704.895 348.533 705.069 348.394C705.248 348.261 705.398 348.093 705.512 347.902C705.626 347.71 705.7 347.497 705.731 347.277C705.762 347.056 705.749 346.831 705.692 346.616C705.635 346.4 705.537 346.198 705.402 346.021C705.241 345.811 705.032 345.643 704.792 345.532C704.552 345.42 704.289 345.368 704.025 345.38C700.988 340.255 675.386 296.122 683.098 278.065C683.87 276.218 685.098 274.597 686.666 273.352C688.235 272.107 690.092 271.28 692.067 270.946C719.045 265.015 738.881 320.585 742.085 330.266C741.763 330.538 741.558 330.923 741.509 331.341C741.461 331.76 741.573 332.181 741.824 332.52C742.1 332.87 742.501 333.101 742.943 333.162C743.385 333.224 743.834 333.113 744.196 332.852C744.383 332.713 744.539 332.537 744.654 332.335C744.77 332.134 744.844 331.911 744.871 331.68C744.897 331.449 744.876 331.215 744.809 330.992C744.742 330.769 744.631 330.562 744.481 330.384Z" fill="white"/>
<path d="M714.347 268.503L696.456 262.927L686.301 278.896L705.71 288.244L714.347 268.503Z" fill="#FFBAAF"/>
<path d="M563.32 395.754L545.738 400.761L542.084 412.363C543.768 421.854 561.873 417.75 561.873 417.75L565.574 420.122C566.271 420.558 567.064 420.816 567.883 420.875C568.703 420.933 569.524 420.79 570.276 420.457C571.027 420.125 571.686 419.614 572.194 418.968C572.702 418.322 573.044 417.562 573.191 416.753L575.113 405.791C575.252 404.905 575.151 403.997 574.822 403.163C574.492 402.328 573.945 401.597 573.238 401.045L567.71 396.727C567.104 396.234 566.392 395.889 565.63 395.72C564.868 395.551 564.077 395.563 563.32 395.754Z" fill="#FFBAAF"/>
<path d="M477.639 375.49C471.494 392.313 467.365 407.001 468.148 412.031C470.284 426.031 546.948 419.671 546.948 419.671V398.317L502.197 389.3L477.639 375.49Z" fill="#4599FF"/>
<path d="M464.209 427.787C464.092 427.809 463.971 427.809 463.853 427.787C463.756 427.741 463.668 427.676 463.596 427.596C463.524 427.516 463.469 427.423 463.433 427.321C463.398 427.219 463.383 427.112 463.39 427.004C463.397 426.897 463.426 426.792 463.474 426.695C469.738 413.123 483.666 390.226 506.184 389.419C506.402 389.419 506.613 389.502 506.771 389.652C506.93 389.802 507.026 390.007 507.038 390.226C507.044 390.442 506.966 390.652 506.82 390.812C506.674 390.971 506.471 391.068 506.255 391.08C484.544 391.839 471.019 414.143 464.897 427.383C464.826 427.503 464.725 427.603 464.605 427.673C464.485 427.744 464.349 427.783 464.209 427.787Z" fill="#4599FF"/>
<g opacity="0.6">
<path d="M464.209 427.787C464.092 427.809 463.971 427.809 463.853 427.787C463.756 427.741 463.668 427.676 463.596 427.596C463.524 427.516 463.469 427.423 463.433 427.321C463.398 427.219 463.383 427.112 463.39 427.004C463.397 426.897 463.426 426.792 463.474 426.695C469.738 413.123 483.666 390.226 506.184 389.419C506.402 389.419 506.613 389.502 506.771 389.652C506.93 389.802 507.026 390.007 507.038 390.226C507.044 390.442 506.966 390.652 506.82 390.812C506.674 390.971 506.471 391.068 506.255 391.08C484.544 391.839 471.019 414.143 464.897 427.383C464.826 427.503 464.725 427.603 464.605 427.673C464.485 427.744 464.349 427.783 464.209 427.787Z" fill="white"/>
</g>
<path d="M474.056 437.112H473.89C473.676 437.066 473.487 436.939 473.363 436.758C473.24 436.577 473.19 436.355 473.226 436.139C476.88 417.869 483.69 394.853 495.387 388.921C497.312 387.938 499.443 387.425 501.604 387.425C503.765 387.425 505.896 387.938 507.821 388.921C507.934 388.955 508.039 389.014 508.128 389.092C508.217 389.17 508.288 389.267 508.337 389.375C508.385 389.483 508.41 389.601 508.409 389.719C508.409 389.838 508.383 389.955 508.333 390.063C508.284 390.17 508.212 390.266 508.122 390.344C508.032 390.421 507.927 390.479 507.813 390.512C507.7 390.545 507.58 390.554 507.463 390.538C507.345 390.521 507.233 390.479 507.133 390.416C505.437 389.53 503.553 389.067 501.64 389.067C499.727 389.067 497.842 389.53 496.147 390.416C485.042 396.039 478.422 418.58 474.792 436.471C474.752 436.642 474.66 436.796 474.528 436.911C474.396 437.026 474.231 437.096 474.056 437.112Z" fill="#4599FF"/>
<g opacity="0.7">
<path d="M474.056 437.112H473.89C473.676 437.066 473.487 436.939 473.363 436.758C473.24 436.577 473.19 436.355 473.226 436.139C476.88 417.869 483.69 394.853 495.387 388.921C497.312 387.938 499.443 387.425 501.604 387.425C503.765 387.425 505.896 387.938 507.821 388.921C507.934 388.955 508.039 389.014 508.128 389.092C508.217 389.17 508.288 389.267 508.337 389.375C508.385 389.483 508.41 389.601 508.409 389.719C508.409 389.838 508.383 389.955 508.333 390.063C508.284 390.17 508.212 390.266 508.122 390.344C508.032 390.421 507.927 390.479 507.813 390.512C507.7 390.545 507.58 390.554 507.463 390.538C507.345 390.521 507.233 390.479 507.133 390.416C505.437 389.53 503.553 389.067 501.64 389.067C499.727 389.067 497.842 389.53 496.147 390.416C485.042 396.039 478.422 418.58 474.792 436.471C474.752 436.642 474.66 436.796 474.528 436.911C474.396 437.026 474.231 437.096 474.056 437.112Z" fill="white"/>
</g>
<path d="M481.459 433.553C481.353 433.544 481.25 433.514 481.155 433.465C481.061 433.416 480.977 433.349 480.909 433.267C480.84 433.186 480.789 433.091 480.757 432.99C480.725 432.888 480.714 432.781 480.724 432.675C481.958 419.316 487.035 395.897 507.299 388.992C507.398 388.955 507.504 388.939 507.61 388.944C507.717 388.949 507.82 388.976 507.916 389.023C508.011 389.069 508.096 389.135 508.166 389.215C508.235 389.296 508.287 389.389 508.319 389.491C508.387 389.692 508.373 389.912 508.28 390.103C508.187 390.294 508.022 390.441 507.821 390.511C489.384 396.775 483.785 416.991 482.313 432.841C482.305 432.944 482.275 433.044 482.227 433.136C482.18 433.228 482.114 433.309 482.035 433.375C481.955 433.441 481.864 433.491 481.765 433.522C481.666 433.552 481.562 433.563 481.459 433.553Z" fill="#0A0A0A"/>
<path d="M496.93 462.548C496.745 462.551 496.564 462.488 496.421 462.371C496.278 462.254 496.181 462.089 496.147 461.907C495.72 459.724 486.063 408.472 500.584 393.215C502.181 391.53 504.176 390.273 506.386 389.56C508.596 388.847 510.95 388.7 513.231 389.134C513.438 389.169 513.625 389.282 513.753 389.449C513.881 389.617 513.94 389.826 513.919 390.036C513.884 390.248 513.768 390.438 513.595 390.567C513.423 390.695 513.207 390.751 512.994 390.724C510.969 390.32 508.875 390.437 506.908 391.064C504.941 391.691 503.165 392.806 501.747 394.307C487.771 408.994 497.618 461.077 497.713 461.599C497.748 461.809 497.702 462.025 497.582 462.201C497.463 462.378 497.28 462.502 497.072 462.548H496.93Z" fill="#0A0A0A"/>
</svg>
